<svg width="957" height="276" viewBox="0 0 957 276" fill="none" xmlns="http://www.w3.org/2000/svg">
<path d="M116.24 57.184C124.432 57.184 132.709 57.952 141.072 59.488C149.435 61.024 156.091 63.2427 161.04 66.144C162.576 66.8267 163.515 67.5947 163.856 68.448C164.368 69.1307 164.709 70.4107 164.88 72.288L167.696 100.96C167.696 101.472 167.269 101.813 166.416 101.984C165.563 101.984 165.051 101.728 164.88 101.216C161.125 88.0747 154.128 78.432 143.888 72.288C133.819 65.9733 121.275 62.816 106.256 62.816C93.2853 62.816 81.936 65.7173 72.208 71.52C62.48 77.152 54.9707 85.1733 49.68 95.584C44.3893 105.995 41.744 118.027 41.744 131.68C41.744 147.552 44.9867 162.229 51.472 175.712C58.128 189.195 67.0027 199.861 78.096 207.712C89.36 215.563 101.477 219.488 114.448 219.488C126.736 219.488 137.403 216.16 146.448 209.504C155.493 202.677 162.405 192.267 167.184 178.272C167.184 177.76 167.525 177.504 168.208 177.504C168.72 177.504 169.147 177.589 169.488 177.76C170 177.931 170.256 178.187 170.256 178.528L166.672 207.456C166.331 209.504 165.904 210.869 165.392 211.552C165.051 212.064 164.112 212.661 162.576 213.344C147.216 219.829 131.003 223.072 113.936 223.072C93.456 223.072 76.304 218.976 62.48 210.784C48.8267 202.421 38.7573 191.84 32.272 179.04C25.7867 166.24 22.544 152.757 22.544 138.592C22.544 122.891 26.896 108.811 35.6 96.352C44.304 83.8933 55.824 74.2507 70.16 67.424C84.496 60.5973 99.856 57.184 116.24 57.184ZM276.482 221.536C275.799 221.877 275.202 222.048 274.69 222.048C271.618 222.048 268.631 220 265.73 215.904C262.999 211.637 261.634 205.92 261.634 198.752V133.728C261.634 123.317 260.098 115.723 257.026 110.944C254.125 106.165 249.431 103.776 242.946 103.776C235.095 103.776 229.293 106.251 225.538 111.2C221.954 115.979 219.138 122.293 217.09 130.144C216.237 133.045 215.042 135.435 213.506 137.312C212.141 139.019 210.007 139.872 207.106 139.872C204.375 139.872 202.157 139.104 200.45 137.568C198.743 135.861 197.89 133.813 197.89 131.424C197.89 127.157 200.877 122.379 206.85 117.088C212.994 111.797 220.418 107.275 229.122 103.52C237.826 99.7653 245.677 97.888 252.674 97.888C260.013 97.888 265.901 100.277 270.338 105.056C274.775 109.664 276.994 116.661 276.994 126.048V190.048C276.994 202.848 281.175 209.248 289.538 209.248C292.951 209.248 297.133 208.139 302.082 205.92H302.594C303.277 205.92 303.703 206.347 303.874 207.2C304.215 207.883 304.045 208.395 303.362 208.736L276.482 221.536ZM218.882 221.792C212.909 221.792 207.874 220 203.778 216.416C199.682 212.832 197.634 208.736 197.634 204.128C197.634 197.643 199.767 192.437 204.034 188.512C208.301 184.587 216.237 180.491 227.842 176.224L264.45 162.912L264.962 165.984L233.218 178.272C226.903 180.661 222.466 183.392 219.906 186.464C217.346 189.536 216.066 193.205 216.066 197.472C216.066 201.568 217.431 205.152 220.162 208.224C223.063 211.125 226.391 212.576 230.146 212.576C234.242 212.576 238.765 211.296 243.714 208.736L266.754 196.96L267.266 200.288L244.738 212.832C238.765 216.075 233.815 218.379 229.89 219.744C225.965 221.109 222.295 221.792 218.882 221.792ZM380.556 153.44C393.527 154.123 403.511 157.024 410.508 162.144C417.676 167.093 421.26 174.261 421.26 183.648C421.26 194.741 416.823 203.787 407.948 210.784C399.073 217.611 387.639 221.024 373.644 221.024C369.207 221.024 364.001 220.768 358.028 220.256C355.639 220.085 352.823 219.915 349.58 219.744C346.337 219.573 342.839 219.488 339.084 219.488L324.236 219.744C321.335 219.915 317.409 220 312.46 220C312.119 220 311.948 219.488 311.948 218.464C311.948 217.44 312.119 216.928 312.46 216.928C318.263 216.928 322.444 216.501 325.004 215.648C327.735 214.795 329.527 213.173 330.38 210.784C331.404 208.224 331.916 204.384 331.916 199.264V120.928C331.916 115.808 331.404 112.053 330.38 109.664C329.527 107.275 327.735 105.653 325.004 104.8C322.444 103.776 318.348 103.264 312.716 103.264C312.375 103.264 312.204 102.752 312.204 101.728C312.204 100.704 312.375 100.192 312.716 100.192L324.236 100.448C330.721 100.789 335.671 100.96 339.084 100.96C343.692 100.96 348.385 100.704 353.164 100.192C354.871 100.021 357.26 99.8507 360.332 99.68C363.575 99.5093 366.391 99.424 368.78 99.424C381.068 99.424 390.625 101.643 397.452 106.08C404.279 110.517 407.692 116.747 407.692 124.768C407.692 132.619 404.449 139.36 397.964 144.992C391.649 150.624 383.287 154.293 372.876 156L380.556 153.44ZM362.124 102.752C358.028 102.752 354.956 103.264 352.908 104.288C350.86 105.141 349.409 106.933 348.556 109.664C347.703 112.224 347.276 116.149 347.276 121.44V154.464L340.876 153.184C345.484 153.696 351.628 153.952 359.308 153.952C370.572 153.952 378.764 152.416 383.884 149.344C389.004 146.101 391.564 139.701 391.564 130.144C391.564 120.587 389.089 113.675 384.14 109.408C379.191 104.971 371.852 102.752 362.124 102.752ZM369.036 216.928C392.588 216.928 404.364 207.797 404.364 189.536C404.364 179.808 400.78 172.128 393.612 166.496C386.444 160.864 375.436 158.048 360.588 158.048C352.737 158.048 346.167 158.56 340.876 159.584L347.276 157.536V199.264C347.276 205.749 348.727 210.357 351.628 213.088C354.7 215.648 360.503 216.928 369.036 216.928ZM476.568 199.264C476.568 204.555 476.995 208.395 477.848 210.784C478.872 213.173 480.664 214.795 483.224 215.648C485.784 216.501 489.965 216.928 495.768 216.928C496.109 216.928 496.28 217.44 496.28 218.464C496.28 219.488 496.109 220 495.768 220C490.989 220 487.235 219.915 484.504 219.744L468.376 219.488L453.272 219.744C450.371 219.915 446.445 220 441.496 220C441.155 220 440.984 219.488 440.984 218.464C440.984 217.44 441.155 216.928 441.496 216.928C447.299 216.928 451.48 216.501 454.04 215.648C456.6 214.795 458.307 213.173 459.16 210.784C460.184 208.395 460.696 204.555 460.696 199.264V120.928C460.696 115.808 460.184 112.053 459.16 109.664C458.307 107.275 456.515 105.653 453.784 104.8C451.224 103.776 447.128 103.264 441.496 103.264C441.155 103.264 440.984 102.752 440.984 101.728C440.984 100.704 441.155 100.192 441.496 100.192L453.272 100.448C459.416 100.789 464.451 100.96 468.376 100.96C472.813 100.96 478.275 100.789 484.76 100.448L495.768 100.192C496.109 100.192 496.28 100.704 496.28 101.728C496.28 102.752 496.109 103.264 495.768 103.264C490.307 103.264 486.211 103.776 483.48 104.8C480.749 105.824 478.872 107.616 477.848 110.176C476.995 112.565 476.568 116.32 476.568 121.44V199.264ZM549.52 198.752C549.52 203.872 549.947 207.712 550.8 210.272C551.824 212.661 553.616 214.368 556.176 215.392C558.736 216.416 562.661 216.928 567.952 216.928C568.464 216.928 568.72 217.44 568.72 218.464C568.72 219.488 568.464 220 567.952 220C563.344 220 559.675 219.915 556.944 219.744L541.328 219.488L526.224 219.744C523.493 219.915 519.739 220 514.96 220C514.619 220 514.448 219.488 514.448 218.464C514.448 217.44 514.619 216.928 514.96 216.928C520.421 216.928 524.432 216.501 526.992 215.648C529.723 214.624 531.6 212.917 532.624 210.528C533.648 208.139 534.16 204.384 534.16 199.264V120.928C534.16 115.808 533.648 112.053 532.624 109.664C531.771 107.275 530.064 105.653 527.504 104.8C524.944 103.776 521.019 103.264 515.728 103.264C515.216 103.264 514.96 102.752 514.96 101.728C514.96 100.704 515.216 100.192 515.728 100.192L532.368 100.448L544.912 100.192C546.96 100.192 548.24 100.533 548.752 101.216C549.264 101.728 549.52 103.008 549.52 105.056V198.752ZM540.816 129.888C550.373 118.453 559.76 110.176 568.976 105.056C578.192 99.7653 588.005 97.12 598.416 97.12C611.045 97.12 621.2 100.619 628.88 107.616C636.56 114.443 640.4 125.024 640.4 139.36V199.264C640.4 204.384 640.741 208.224 641.424 210.784C642.277 213.173 643.728 214.795 645.776 215.648C647.995 216.501 651.408 216.928 656.016 216.928C656.357 216.928 656.528 217.44 656.528 218.464C656.528 219.488 656.357 220 656.016 220C651.749 220 648.421 219.915 646.032 219.744L632.464 219.488L616.336 219.744C613.776 219.915 610.363 220 606.096 220C605.755 220 605.584 219.488 605.584 218.464C605.584 217.44 605.755 216.928 606.096 216.928C611.557 216.928 615.568 216.416 618.128 215.392C620.859 214.368 622.651 212.661 623.504 210.272C624.528 207.712 625.04 203.872 625.04 198.752V147.808C625.04 131.424 622.139 120.075 616.336 113.76C610.704 107.275 602.512 104.032 591.76 104.032C583.227 104.032 575.205 106.165 567.696 110.432C560.357 114.528 552.251 121.781 543.376 132.192L540.816 129.888ZM732.318 220C731.806 220 731.55 219.488 731.55 218.464C731.55 217.44 731.806 216.928 732.318 216.928C739.315 216.928 744.435 216.501 747.678 215.648C751.091 214.624 753.395 212.917 754.59 210.528C755.955 208.139 756.638 204.384 756.638 199.264V129.888C756.638 123.573 756.211 119.136 755.358 116.576C754.505 114.016 752.713 112.736 749.982 112.736C746.91 112.736 741.022 114.699 732.318 118.624H732.062C731.209 118.624 730.611 118.197 730.27 117.344C729.929 116.491 730.099 115.979 730.782 115.808L769.438 97.632C769.609 97.4613 769.865 97.376 770.206 97.376C770.547 97.376 770.889 97.632 771.23 98.144C771.571 98.4853 771.742 98.912 771.742 99.424V199.264C771.742 204.555 772.254 208.395 773.278 210.784C774.473 213.173 776.777 214.795 780.19 215.648C783.603 216.501 788.979 216.928 796.318 216.928C796.659 216.928 796.83 217.44 796.83 218.464C796.83 219.488 796.659 220 796.318 220C790.686 220 786.334 219.915 783.262 219.744L764.318 219.488L745.63 219.744C742.387 219.915 737.95 220 732.318 220ZM877.15 223.328C865.374 223.328 854.878 220.683 845.662 215.392C836.446 209.931 829.193 202.421 823.902 192.864C818.782 183.136 816.222 172.043 816.222 159.584C816.222 147.467 818.782 136.715 823.902 127.328C829.193 117.941 836.446 110.688 845.662 105.568C855.049 100.277 865.63 97.632 877.406 97.632C889.011 97.632 899.337 100.277 908.382 105.568C917.598 110.859 924.681 118.283 929.63 127.84C934.75 137.227 937.31 148.064 937.31 160.352C937.31 172.64 934.75 183.563 929.63 193.12C924.51 202.677 917.342 210.101 908.126 215.392C899.081 220.683 888.755 223.328 877.15 223.328ZM880.222 219.744C893.193 219.744 902.835 214.795 909.15 204.896C915.465 194.827 918.622 181.003 918.622 163.424C918.622 149.6 916.659 137.995 912.734 128.608C908.809 119.221 903.518 112.309 896.862 107.872C890.206 103.264 882.782 100.96 874.59 100.96C861.961 100.96 852.062 106.251 844.894 116.832C837.726 127.243 834.142 140.896 834.142 157.792C834.142 169.739 836.019 180.405 839.774 189.792C843.529 199.179 848.905 206.517 855.902 211.808C862.899 217.099 871.006 219.744 880.222 219.744Z" fill="white"/>
</svg>
