<svg xmlns="http://www.w3.org/2000/svg" fill="none" viewBox="-1 47.18 939 279.59">
<path d="M106.24 47.184C114.432 47.184 122.709 47.952 131.072 49.488C139.435 51.024 146.091 53.2427 151.04 56.144C152.576 56.8267 153.515 57.5947 153.856 58.448C154.368 59.1307 154.709 60.4107 154.88 62.288L157.696 90.96C157.696 91.472 157.269 91.8133 156.416 91.984C155.563 91.984 155.051 91.728 154.88 91.216C151.125 78.0747 144.128 68.432 133.888 62.288C123.819 55.9733 111.275 52.816 96.256 52.816C83.2853 52.816 71.936 55.7173 62.208 61.52C52.48 67.152 44.9707 75.1733 39.68 85.584C34.3893 95.9947 31.744 108.027 31.744 121.68C31.744 137.552 34.9867 152.229 41.472 165.712C48.128 179.195 57.0027 189.861 68.096 197.712C79.36 205.563 91.4773 209.488 104.448 209.488C116.736 209.488 127.403 206.16 136.448 199.504C145.493 192.677 152.405 182.267 157.184 168.272C157.184 167.76 157.525 167.504 158.208 167.504C158.72 167.504 159.147 167.589 159.488 167.76C160 167.931 160.256 168.187 160.256 168.528L156.672 197.456C156.331 199.504 155.904 200.869 155.392 201.552C155.051 202.064 154.112 202.661 152.576 203.344C137.216 209.829 121.003 213.072 103.936 213.072C83.456 213.072 66.304 208.976 52.48 200.784C38.8267 192.421 28.7573 181.84 22.272 169.04C15.7867 156.24 12.544 142.757 12.544 128.592C12.544 112.891 16.896 98.8107 25.6 86.352C34.304 73.8933 45.824 64.2507 60.16 57.424C74.496 50.5973 89.856 47.184 106.24 47.184ZM266.482 211.536C265.799 211.877 265.202 212.048 264.69 212.048C261.618 212.048 258.631 210 255.73 205.904C252.999 201.637 251.634 195.92 251.634 188.752V123.728C251.634 113.317 250.098 105.723 247.026 100.944C244.125 96.1653 239.431 93.776 232.946 93.776C225.095 93.776 219.293 96.2507 215.538 101.2C211.954 105.979 209.138 112.293 207.09 120.144C206.237 123.045 205.042 125.435 203.506 127.312C202.141 129.019 200.007 129.872 197.106 129.872C194.375 129.872 192.157 129.104 190.45 127.568C188.743 125.861 187.89 123.813 187.89 121.424C187.89 117.157 190.877 112.379 196.85 107.088C202.994 101.797 210.418 97.2747 219.122 93.52C227.826 89.7653 235.677 87.888 242.674 87.888C250.013 87.888 255.901 90.2773 260.338 95.056C264.775 99.664 266.994 106.661 266.994 116.048V180.048C266.994 192.848 271.175 199.248 279.538 199.248C282.951 199.248 287.133 198.139 292.082 195.92H292.594C293.277 195.92 293.703 196.347 293.874 197.2C294.215 197.883 294.045 198.395 293.362 198.736L266.482 211.536ZM208.882 211.792C202.909 211.792 197.874 210 193.778 206.416C189.682 202.832 187.634 198.736 187.634 194.128C187.634 187.643 189.767 182.437 194.034 178.512C198.301 174.587 206.237 170.491 217.842 166.224L254.45 152.912L254.962 155.984L223.218 168.272C216.903 170.661 212.466 173.392 209.906 176.464C207.346 179.536 206.066 183.205 206.066 187.472C206.066 191.568 207.431 195.152 210.162 198.224C213.063 201.125 216.391 202.576 220.146 202.576C224.242 202.576 228.765 201.296 233.714 198.736L256.754 186.96L257.266 190.288L234.738 202.832C228.765 206.075 223.815 208.379 219.89 209.744C215.965 211.109 212.295 211.792 208.882 211.792ZM370.556 143.44C383.527 144.123 393.511 147.024 400.508 152.144C407.676 157.093 411.26 164.261 411.26 173.648C411.26 184.741 406.823 193.787 397.948 200.784C389.073 207.611 377.639 211.024 363.644 211.024C359.207 211.024 354.001 210.768 348.028 210.256C345.639 210.085 342.823 209.915 339.58 209.744C336.337 209.573 332.839 209.488 329.084 209.488L314.236 209.744C311.335 209.915 307.409 210 302.46 210C302.119 210 301.948 209.488 301.948 208.464C301.948 207.44 302.119 206.928 302.46 206.928C308.263 206.928 312.444 206.501 315.004 205.648C317.735 204.795 319.527 203.173 320.38 200.784C321.404 198.224 321.916 194.384 321.916 189.264V110.928C321.916 105.808 321.404 102.053 320.38 99.664C319.527 97.2747 317.735 95.6533 315.004 94.8C312.444 93.776 308.348 93.264 302.716 93.264C302.375 93.264 302.204 92.752 302.204 91.728C302.204 90.704 302.375 90.192 302.716 90.192L314.236 90.448C320.721 90.7893 325.671 90.96 329.084 90.96C333.692 90.96 338.385 90.704 343.164 90.192C344.871 90.0213 347.26 89.8507 350.332 89.68C353.575 89.5093 356.391 89.424 358.78 89.424C371.068 89.424 380.625 91.6427 387.452 96.08C394.279 100.517 397.692 106.747 397.692 114.768C397.692 122.619 394.449 129.36 387.964 134.992C381.649 140.624 373.287 144.293 362.876 146L370.556 143.44ZM352.124 92.752C348.028 92.752 344.956 93.264 342.908 94.288C340.86 95.1413 339.409 96.9333 338.556 99.664C337.703 102.224 337.276 106.149 337.276 111.44V144.464L330.876 143.184C335.484 143.696 341.628 143.952 349.308 143.952C360.572 143.952 368.764 142.416 373.884 139.344C379.004 136.101 381.564 129.701 381.564 120.144C381.564 110.587 379.089 103.675 374.14 99.408C369.191 94.9707 361.852 92.752 352.124 92.752ZM359.036 206.928C382.588 206.928 394.364 197.797 394.364 179.536C394.364 169.808 390.78 162.128 383.612 156.496C376.444 150.864 365.436 148.048 350.588 148.048C342.737 148.048 336.167 148.56 330.876 149.584L337.276 147.536V189.264C337.276 195.749 338.727 200.357 341.628 203.088C344.7 205.648 350.503 206.928 359.036 206.928ZM466.568 189.264C466.568 194.555 466.995 198.395 467.848 200.784C468.872 203.173 470.664 204.795 473.224 205.648C475.784 206.501 479.965 206.928 485.768 206.928C486.109 206.928 486.28 207.44 486.28 208.464C486.28 209.488 486.109 210 485.768 210C480.989 210 477.235 209.915 474.504 209.744L458.376 209.488L443.272 209.744C440.371 209.915 436.445 210 431.496 210C431.155 210 430.984 209.488 430.984 208.464C430.984 207.44 431.155 206.928 431.496 206.928C437.299 206.928 441.48 206.501 444.04 205.648C446.6 204.795 448.307 203.173 449.16 200.784C450.184 198.395 450.696 194.555 450.696 189.264V110.928C450.696 105.808 450.184 102.053 449.16 99.664C448.307 97.2747 446.515 95.6533 443.784 94.8C441.224 93.776 437.128 93.264 431.496 93.264C431.155 93.264 430.984 92.752 430.984 91.728C430.984 90.704 431.155 90.192 431.496 90.192L443.272 90.448C449.416 90.7893 454.451 90.96 458.376 90.96C462.813 90.96 468.275 90.7893 474.76 90.448L485.768 90.192C486.109 90.192 486.28 90.704 486.28 91.728C486.28 92.752 486.109 93.264 485.768 93.264C480.307 93.264 476.211 93.776 473.48 94.8C470.749 95.824 468.872 97.616 467.848 100.176C466.995 102.565 466.568 106.32 466.568 111.44V189.264ZM539.52 188.752C539.52 193.872 539.947 197.712 540.8 200.272C541.824 202.661 543.616 204.368 546.176 205.392C548.736 206.416 552.661 206.928 557.952 206.928C558.464 206.928 558.72 207.44 558.72 208.464C558.72 209.488 558.464 210 557.952 210C553.344 210 549.675 209.915 546.944 209.744L531.328 209.488L516.224 209.744C513.493 209.915 509.739 210 504.96 210C504.619 210 504.448 209.488 504.448 208.464C504.448 207.44 504.619 206.928 504.96 206.928C510.421 206.928 514.432 206.501 516.992 205.648C519.723 204.624 521.6 202.917 522.624 200.528C523.648 198.139 524.16 194.384 524.16 189.264V110.928C524.16 105.808 523.648 102.053 522.624 99.664C521.771 97.2747 520.064 95.6533 517.504 94.8C514.944 93.776 511.019 93.264 505.728 93.264C505.216 93.264 504.96 92.752 504.96 91.728C504.96 90.704 505.216 90.192 505.728 90.192L522.368 90.448L534.912 90.192C536.96 90.192 538.24 90.5333 538.752 91.216C539.264 91.728 539.52 93.008 539.52 95.056V188.752ZM530.816 119.888C540.373 108.453 549.76 100.176 558.976 95.056C568.192 89.7653 578.005 87.12 588.416 87.12C601.045 87.12 611.2 90.6187 618.88 97.616C626.56 104.443 630.4 115.024 630.4 129.36V189.264C630.4 194.384 630.741 198.224 631.424 200.784C632.277 203.173 633.728 204.795 635.776 205.648C637.995 206.501 641.408 206.928 646.016 206.928C646.357 206.928 646.528 207.44 646.528 208.464C646.528 209.488 646.357 210 646.016 210C641.749 210 638.421 209.915 636.032 209.744L622.464 209.488L606.336 209.744C603.776 209.915 600.363 210 596.096 210C595.755 210 595.584 209.488 595.584 208.464C595.584 207.44 595.755 206.928 596.096 206.928C601.557 206.928 605.568 206.416 608.128 205.392C610.859 204.368 612.651 202.661 613.504 200.272C614.528 197.712 615.04 193.872 615.04 188.752V137.808C615.04 121.424 612.139 110.075 606.336 103.76C600.704 97.2747 592.512 94.032 581.76 94.032C573.227 94.032 565.205 96.1653 557.696 100.432C550.357 104.528 542.251 111.781 533.376 122.192L530.816 119.888ZM722.318 210C721.806 210 721.55 209.488 721.55 208.464C721.55 207.44 721.806 206.928 722.318 206.928C729.315 206.928 734.435 206.501 737.678 205.648C741.091 204.624 743.395 202.917 744.59 200.528C745.955 198.139 746.638 194.384 746.638 189.264V119.888C746.638 113.573 746.211 109.136 745.358 106.576C744.505 104.016 742.713 102.736 739.982 102.736C736.91 102.736 731.022 104.699 722.318 108.624H722.062C721.209 108.624 720.611 108.197 720.27 107.344C719.929 106.491 720.099 105.979 720.782 105.808L759.438 87.632C759.609 87.4613 759.865 87.376 760.206 87.376C760.547 87.376 760.889 87.632 761.23 88.144C761.571 88.4853 761.742 88.912 761.742 89.424V189.264C761.742 194.555 762.254 198.395 763.278 200.784C764.473 203.173 766.777 204.795 770.19 205.648C773.603 206.501 778.979 206.928 786.318 206.928C786.659 206.928 786.83 207.44 786.83 208.464C786.83 209.488 786.659 210 786.318 210C780.686 210 776.334 209.915 773.262 209.744L754.318 209.488L735.63 209.744C732.387 209.915 727.95 210 722.318 210ZM867.15 213.328C855.374 213.328 844.878 210.683 835.662 205.392C826.446 199.931 819.193 192.421 813.902 182.864C808.782 173.136 806.222 162.043 806.222 149.584C806.222 137.467 808.782 126.715 813.902 117.328C819.193 107.941 826.446 100.688 835.662 95.568C845.049 90.2773 855.63 87.632 867.406 87.632C879.011 87.632 889.337 90.2773 898.382 95.568C907.598 100.859 914.681 108.283 919.63 117.84C924.75 127.227 927.31 138.064 927.31 150.352C927.31 162.64 924.75 173.563 919.63 183.12C914.51 192.677 907.342 200.101 898.126 205.392C889.081 210.683 878.755 213.328 867.15 213.328ZM870.222 209.744C883.193 209.744 892.835 204.795 899.15 194.896C905.465 184.827 908.622 171.003 908.622 153.424C908.622 139.6 906.659 127.995 902.734 118.608C898.809 109.221 893.518 102.309 886.862 97.872C880.206 93.264 872.782 90.96 864.59 90.96C851.961 90.96 842.062 96.2507 834.894 106.832C827.726 117.243 824.142 130.896 824.142 147.792C824.142 159.739 826.019 170.405 829.774 179.792C833.529 189.179 838.905 196.517 845.902 201.808C852.899 207.099 861.006 209.744 870.222 209.744Z" fill="white"/>
<line x1="-0.00112613" y1="256.055" x2="936.998" y2="255" stroke="white" stroke-width="2"/>
<path d="M233.422 311.868L234.477 310.274C235.445 311.071 236.438 311.743 237.453 312.29C238.484 312.821 239.547 313.227 240.641 313.508C241.734 313.774 242.852 313.907 243.992 313.907C245.82 313.907 247.438 313.571 248.844 312.899C250.25 312.227 251.344 311.297 252.125 310.11C252.922 308.922 253.32 307.563 253.32 306.032C253.32 304.391 252.898 303.055 252.055 302.024C251.211 300.977 250.125 300.102 248.797 299.399C247.469 298.696 246.07 298.04 244.602 297.43C243.461 296.946 242.336 296.438 241.227 295.907C240.117 295.36 239.117 294.735 238.227 294.032C237.336 293.329 236.625 292.485 236.094 291.5C235.578 290.516 235.32 289.336 235.32 287.961C235.32 286.227 235.75 284.704 236.609 283.391C237.469 282.063 238.672 281.032 240.219 280.297C241.781 279.563 243.57 279.196 245.586 279.196C246.945 279.196 248.281 279.368 249.594 279.711C250.906 280.055 252.156 280.555 253.344 281.211L252.406 282.946C251.328 282.336 250.203 281.875 249.031 281.563C247.859 281.235 246.695 281.071 245.539 281.071C243.945 281.071 242.539 281.36 241.32 281.938C240.117 282.5 239.164 283.29 238.461 284.305C237.773 285.321 237.43 286.5 237.43 287.844C237.43 289.313 237.82 290.524 238.602 291.477C239.398 292.43 240.422 293.243 241.672 293.915C242.938 294.571 244.273 295.196 245.68 295.79C246.867 296.305 248.039 296.852 249.195 297.43C250.352 297.993 251.398 298.657 252.336 299.422C253.273 300.172 254.023 301.079 254.586 302.141C255.148 303.188 255.43 304.469 255.43 305.985C255.43 307.907 254.953 309.602 254 311.071C253.047 312.54 251.719 313.688 250.016 314.516C248.312 315.344 246.344 315.758 244.109 315.758C242.172 315.758 240.297 315.43 238.484 314.774C236.672 314.102 234.984 313.133 233.422 311.868ZM273.008 314.54C271.68 315.196 270.359 315.524 269.047 315.524C267.859 315.524 266.812 315.258 265.906 314.727C265.016 314.196 264.32 313.446 263.82 312.477C263.32 311.493 263.07 310.352 263.07 309.055V293.352H258.969V291.618H263.141V285.758H264.992V291.618H272.328V293.352H264.992V308.704C264.992 310.235 265.391 311.469 266.188 312.407C267 313.329 268.07 313.79 269.398 313.79C270.414 313.79 271.461 313.493 272.539 312.899L273.008 314.54ZM280.344 315.055H278.422V291.618H280.18L280.227 297.336C280.961 295.321 282.133 293.79 283.742 292.743C285.352 291.68 287.25 291.149 289.438 291.149C289.797 291.149 290.148 291.165 290.492 291.196C290.852 291.227 291.211 291.274 291.57 291.336L291.336 293.094C290.633 292.954 289.953 292.883 289.297 292.883C287.547 292.883 285.992 293.313 284.633 294.172C283.289 295.016 282.234 296.188 281.469 297.688C280.719 299.172 280.344 300.875 280.344 302.797V315.055ZM313.391 315.055H311.797L311.586 310.344C310.867 311.922 309.766 313.18 308.281 314.118C306.797 315.055 305.078 315.524 303.125 315.524C301.516 315.524 300.062 315.204 298.766 314.563C297.484 313.922 296.477 313.055 295.742 311.961C295.008 310.852 294.641 309.602 294.641 308.211C294.641 306.727 295.047 305.422 295.859 304.297C296.672 303.157 297.789 302.266 299.211 301.625C300.633 300.969 302.266 300.641 304.109 300.641C305.453 300.641 306.758 300.821 308.023 301.18C309.305 301.54 310.453 302.063 311.469 302.75V300.547C311.469 298.954 311.156 297.594 310.531 296.469C309.922 295.329 309.055 294.454 307.93 293.844C306.82 293.219 305.516 292.907 304.016 292.907C302.734 292.907 301.477 293.141 300.242 293.61C299.023 294.063 297.906 294.735 296.891 295.625L296.07 293.938C297.273 293.032 298.586 292.344 300.008 291.875C301.43 291.391 302.859 291.149 304.297 291.149C306.156 291.149 307.766 291.54 309.125 292.321C310.484 293.086 311.531 294.18 312.266 295.602C313.016 297.024 313.391 298.704 313.391 300.641V315.055ZM303.43 313.766C304.914 313.766 306.258 313.43 307.461 312.758C308.68 312.071 309.648 311.133 310.367 309.946C311.086 308.758 311.453 307.407 311.469 305.891V304.719C310.406 303.922 309.273 303.321 308.07 302.915C306.883 302.508 305.633 302.305 304.32 302.305C302.07 302.305 300.227 302.844 298.789 303.922C297.352 305 296.633 306.383 296.633 308.071C296.633 309.149 296.93 310.118 297.523 310.977C298.117 311.836 298.922 312.516 299.938 313.016C300.969 313.516 302.133 313.766 303.43 313.766ZM343.812 315.055H341.703L335.023 294.524L328.367 315.055H326.234L318.5 291.618H320.539L327.289 312.407L334.109 291.618H335.961L342.781 312.407L349.555 291.618H351.594L343.812 315.055ZM359.211 315.055H357.453V279.899H359.375V297.336C360.328 295.477 361.711 293.985 363.523 292.86C365.336 291.719 367.383 291.149 369.664 291.149C371.93 291.149 373.961 291.688 375.758 292.766C377.555 293.829 378.977 295.282 380.023 297.125C381.07 298.954 381.594 301.024 381.594 303.336C381.594 305.633 381.07 307.704 380.023 309.547C378.977 311.391 377.555 312.852 375.758 313.93C373.961 314.993 371.93 315.524 369.664 315.524C367.352 315.524 365.281 314.954 363.453 313.813C361.625 312.657 360.242 311.133 359.305 309.243L359.211 315.055ZM369.5 313.766C371.422 313.766 373.141 313.313 374.656 312.407C376.188 311.485 377.398 310.243 378.289 308.68C379.18 307.102 379.625 305.321 379.625 303.336C379.625 301.352 379.18 299.579 378.289 298.016C377.398 296.438 376.188 295.188 374.656 294.266C373.141 293.344 371.422 292.883 369.5 292.883C367.656 292.883 365.992 293.305 364.508 294.149C363.023 294.993 361.828 296.149 360.922 297.618C360.016 299.086 359.5 300.75 359.375 302.61V304.063C359.5 305.922 360.016 307.586 360.922 309.055C361.828 310.508 363.023 311.657 364.508 312.5C365.992 313.344 367.656 313.766 369.5 313.766ZM408.055 312.079C405.211 314.375 402.031 315.524 398.516 315.524C396.125 315.524 393.984 314.993 392.094 313.93C390.219 312.852 388.742 311.383 387.664 309.524C386.586 307.649 386.047 305.516 386.047 303.125C386.047 300.813 386.547 298.758 387.547 296.961C388.562 295.149 389.953 293.727 391.719 292.696C393.484 291.665 395.492 291.149 397.742 291.149C399.992 291.149 401.977 291.672 403.695 292.719C405.43 293.75 406.781 295.188 407.75 297.032C408.719 298.875 409.203 301 409.203 303.407V304.086H388.086C388.18 305.977 388.695 307.649 389.633 309.102C390.586 310.555 391.844 311.696 393.406 312.524C394.969 313.352 396.719 313.766 398.656 313.766C401.719 313.766 404.531 312.727 407.094 310.649L408.055 312.079ZM388.039 302.399H407.398C407.305 300.524 406.836 298.875 405.992 297.454C405.164 296.032 404.047 294.922 402.641 294.125C401.234 293.313 399.625 292.907 397.812 292.907C396 292.907 394.375 293.313 392.938 294.125C391.5 294.938 390.352 296.055 389.492 297.477C388.633 298.883 388.148 300.524 388.039 302.399ZM417.453 315.055H415.531V291.618H417.289L417.336 297.336C418.07 295.321 419.242 293.79 420.852 292.743C422.461 291.68 424.359 291.149 426.547 291.149C426.906 291.149 427.258 291.165 427.602 291.196C427.961 291.227 428.32 291.274 428.68 291.336L428.445 293.094C427.742 292.954 427.062 292.883 426.406 292.883C424.656 292.883 423.102 293.313 421.742 294.172C420.398 295.016 419.344 296.188 418.578 297.688C417.828 299.172 417.453 300.875 417.453 302.797V315.055ZM435.547 315.055H433.625V291.618H435.383L435.43 297.336C436.164 295.321 437.336 293.79 438.945 292.743C440.555 291.68 442.453 291.149 444.641 291.149C445 291.149 445.352 291.165 445.695 291.196C446.055 291.227 446.414 291.274 446.773 291.336L446.539 293.094C445.836 292.954 445.156 292.883 444.5 292.883C442.75 292.883 441.195 293.313 439.836 294.172C438.492 295.016 437.438 296.188 436.672 297.688C435.922 299.172 435.547 300.875 435.547 302.797V315.055ZM457.414 326.774H455.328L460.273 314.797L449.375 291.618H451.484L461.234 312.524L469.883 291.618H471.969L457.414 326.774ZM476.281 320.68H474.781L477.008 310.836H478.977L476.281 320.68ZM528.055 310.508C526.445 312.149 524.531 313.438 522.312 314.375C520.094 315.297 517.664 315.758 515.023 315.758C512.414 315.758 510 315.305 507.781 314.399C505.578 313.493 503.656 312.219 502.016 310.579C500.391 308.938 499.125 307.008 498.219 304.79C497.328 302.555 496.883 300.118 496.883 297.477C496.883 294.836 497.328 292.407 498.219 290.188C499.125 287.954 500.391 286.016 502.016 284.375C503.656 282.735 505.578 281.461 507.781 280.555C510 279.649 512.414 279.196 515.023 279.196C517.648 279.196 520.07 279.657 522.289 280.579C524.508 281.5 526.422 282.782 528.031 284.422L526.602 285.899C525.164 284.383 523.453 283.204 521.469 282.36C519.5 281.5 517.344 281.071 515 281.071C512.688 281.071 510.555 281.477 508.602 282.29C506.664 283.102 504.977 284.25 503.539 285.735C502.102 287.204 500.984 288.938 500.188 290.938C499.391 292.938 498.992 295.118 498.992 297.477C498.992 299.852 499.391 302.04 500.188 304.04C500.984 306.024 502.102 307.758 503.539 309.243C504.977 310.711 506.664 311.852 508.602 312.665C510.555 313.477 512.688 313.883 515 313.883C517.344 313.883 519.5 313.454 521.469 312.594C523.453 311.735 525.164 310.555 526.602 309.055L528.055 310.508ZM552.219 315.055H550.625L550.414 310.344C549.695 311.922 548.594 313.18 547.109 314.118C545.625 315.055 543.906 315.524 541.953 315.524C540.344 315.524 538.891 315.204 537.594 314.563C536.312 313.922 535.305 313.055 534.57 311.961C533.836 310.852 533.469 309.602 533.469 308.211C533.469 306.727 533.875 305.422 534.688 304.297C535.5 303.157 536.617 302.266 538.039 301.625C539.461 300.969 541.094 300.641 542.938 300.641C544.281 300.641 545.586 300.821 546.852 301.18C548.133 301.54 549.281 302.063 550.297 302.75V300.547C550.297 298.954 549.984 297.594 549.359 296.469C548.75 295.329 547.883 294.454 546.758 293.844C545.648 293.219 544.344 292.907 542.844 292.907C541.562 292.907 540.305 293.141 539.07 293.61C537.852 294.063 536.734 294.735 535.719 295.625L534.898 293.938C536.102 293.032 537.414 292.344 538.836 291.875C540.258 291.391 541.688 291.149 543.125 291.149C544.984 291.149 546.594 291.54 547.953 292.321C549.312 293.086 550.359 294.18 551.094 295.602C551.844 297.024 552.219 298.704 552.219 300.641V315.055ZM542.258 313.766C543.742 313.766 545.086 313.43 546.289 312.758C547.508 312.071 548.477 311.133 549.195 309.946C549.914 308.758 550.281 307.407 550.297 305.891V304.719C549.234 303.922 548.102 303.321 546.898 302.915C545.711 302.508 544.461 302.305 543.148 302.305C540.898 302.305 539.055 302.844 537.617 303.922C536.18 305 535.461 306.383 535.461 308.071C535.461 309.149 535.758 310.118 536.352 310.977C536.945 311.836 537.75 312.516 538.766 313.016C539.797 313.516 540.961 313.766 542.258 313.766ZM562.133 315.055H560.141V279.899H562.133V315.055ZM571.648 282.594C571.211 282.594 570.844 282.438 570.547 282.125C570.25 281.813 570.102 281.438 570.102 281C570.102 280.579 570.25 280.219 570.547 279.922C570.844 279.61 571.211 279.454 571.648 279.454C572.086 279.454 572.453 279.61 572.75 279.922C573.062 280.219 573.219 280.586 573.219 281.024C573.219 281.461 573.062 281.836 572.75 282.149C572.453 282.446 572.086 282.594 571.648 282.594ZM572.609 315.055H570.688V291.618H572.609V315.055ZM584.867 315.055H582.945V293.352H578.844V291.618H582.945V285.665C582.945 284.368 583.195 283.235 583.695 282.266C584.211 281.297 584.922 280.547 585.828 280.016C586.734 279.469 587.797 279.196 589.016 279.196C589.703 279.196 590.406 279.29 591.125 279.477C591.844 279.665 592.539 279.946 593.211 280.321L592.484 281.891C591.938 281.579 591.391 281.344 590.844 281.188C590.312 281.016 589.781 280.93 589.25 280.93C587.938 280.93 586.875 281.399 586.062 282.336C585.266 283.258 584.867 284.485 584.867 286.016V291.618H592.273V293.352H584.867V315.055ZM608.82 315.524C606.539 315.524 604.484 314.993 602.656 313.93C600.844 312.852 599.406 311.399 598.344 309.571C597.281 307.743 596.75 305.665 596.75 303.336C596.75 301.024 597.281 298.954 598.344 297.125C599.406 295.282 600.844 293.829 602.656 292.766C604.484 291.688 606.539 291.149 608.82 291.149C611.117 291.149 613.172 291.688 614.984 292.766C616.797 293.829 618.227 295.282 619.273 297.125C620.32 298.954 620.844 301.024 620.844 303.336C620.844 305.649 620.32 307.727 619.273 309.571C618.227 311.399 616.797 312.852 614.984 313.93C613.172 314.993 611.117 315.524 608.82 315.524ZM608.82 313.766C610.727 313.766 612.438 313.313 613.953 312.407C615.484 311.485 616.688 310.243 617.562 308.68C618.438 307.102 618.875 305.321 618.875 303.336C618.875 301.352 618.438 299.579 617.562 298.016C616.688 296.438 615.492 295.196 613.977 294.29C612.461 293.368 610.742 292.907 608.82 292.907C606.914 292.907 605.195 293.368 603.664 294.29C602.133 295.196 600.922 296.438 600.031 298.016C599.156 299.579 598.719 301.352 598.719 303.336C598.719 305.321 599.156 307.102 600.031 308.68C600.922 310.243 602.125 311.485 603.641 312.407C605.172 313.313 606.898 313.766 608.82 313.766ZM629.094 315.055H627.172V291.618H628.93L628.977 297.336C629.711 295.321 630.883 293.79 632.492 292.743C634.102 291.68 636 291.149 638.188 291.149C638.547 291.149 638.898 291.165 639.242 291.196C639.602 291.227 639.961 291.274 640.32 291.336L640.086 293.094C639.383 292.954 638.703 292.883 638.047 292.883C636.297 292.883 634.742 293.313 633.383 294.172C632.039 295.016 630.984 296.188 630.219 297.688C629.469 299.172 629.094 300.875 629.094 302.797V315.055ZM666.055 315.055H664.133V301.743C664.133 298.993 663.398 296.836 661.93 295.274C660.477 293.696 658.469 292.907 655.906 292.907C654.156 292.907 652.625 293.282 651.312 294.032C650.016 294.782 649 295.844 648.266 297.219C647.547 298.579 647.188 300.188 647.188 302.047V315.055H645.266V291.618H647.023L647.07 296.633C647.852 294.836 649.016 293.477 650.562 292.555C652.125 291.618 653.992 291.149 656.164 291.149C659.258 291.149 661.68 292.079 663.43 293.938C665.18 295.782 666.055 298.336 666.055 301.602V315.055ZM675.102 282.594C674.664 282.594 674.297 282.438 674 282.125C673.703 281.813 673.555 281.438 673.555 281C673.555 280.579 673.703 280.219 674 279.922C674.297 279.61 674.664 279.454 675.102 279.454C675.539 279.454 675.906 279.61 676.203 279.922C676.516 280.219 676.672 280.586 676.672 281.024C676.672 281.461 676.516 281.836 676.203 282.149C675.906 282.446 675.539 282.594 675.102 282.594ZM676.062 315.055H674.141V291.618H676.062V315.055ZM702.219 315.055H700.625L700.414 310.344C699.695 311.922 698.594 313.18 697.109 314.118C695.625 315.055 693.906 315.524 691.953 315.524C690.344 315.524 688.891 315.204 687.594 314.563C686.312 313.922 685.305 313.055 684.57 311.961C683.836 310.852 683.469 309.602 683.469 308.211C683.469 306.727 683.875 305.422 684.688 304.297C685.5 303.157 686.617 302.266 688.039 301.625C689.461 300.969 691.094 300.641 692.938 300.641C694.281 300.641 695.586 300.821 696.852 301.18C698.133 301.54 699.281 302.063 700.297 302.75V300.547C700.297 298.954 699.984 297.594 699.359 296.469C698.75 295.329 697.883 294.454 696.758 293.844C695.648 293.219 694.344 292.907 692.844 292.907C691.562 292.907 690.305 293.141 689.07 293.61C687.852 294.063 686.734 294.735 685.719 295.625L684.898 293.938C686.102 293.032 687.414 292.344 688.836 291.875C690.258 291.391 691.688 291.149 693.125 291.149C694.984 291.149 696.594 291.54 697.953 292.321C699.312 293.086 700.359 294.18 701.094 295.602C701.844 297.024 702.219 298.704 702.219 300.641V315.055ZM692.258 313.766C693.742 313.766 695.086 313.43 696.289 312.758C697.508 312.071 698.477 311.133 699.195 309.946C699.914 308.758 700.281 307.407 700.297 305.891V304.719C699.234 303.922 698.102 303.321 696.898 302.915C695.711 302.508 694.461 302.305 693.148 302.305C690.898 302.305 689.055 302.844 687.617 303.922C686.18 305 685.461 306.383 685.461 308.071C685.461 309.149 685.758 310.118 686.352 310.977C686.945 311.836 687.75 312.516 688.766 313.016C689.797 313.516 690.961 313.766 692.258 313.766Z" fill="white"/>
</svg>