<svg width="40" height="41" viewBox="0 0 40 41" fill="none" xmlns="http://www.w3.org/2000/svg">
<path d="M6.66659 34.2502C5.74992 34.2502 4.9652 33.9238 4.31242 33.271C3.65964 32.6182 3.33325 31.8335 3.33325 30.9168V10.9168C3.33325 10.0002 3.65964 9.21544 4.31242 8.56266C4.9652 7.90989 5.74992 7.5835 6.66659 7.5835H33.3333C34.2499 7.5835 35.0346 7.90989 35.6874 8.56266C36.3402 9.21544 36.6666 10.0002 36.6666 10.9168V30.9168C36.6666 31.8335 36.3402 32.6182 35.6874 33.271C35.0346 33.9238 34.2499 34.2502 33.3333 34.2502H6.66659ZM19.9999 22.5835L6.66659 14.2502V30.9168H33.3333V14.2502L19.9999 22.5835ZM19.9999 19.2502L33.3333 10.9168H6.66659L19.9999 19.2502ZM6.66659 14.2502V10.9168V30.9168V14.2502Z" fill="white"/>
</svg>
